<mxfile host="app.diagrams.net" agent="Mozilla/5.0 (Windows NT 10.0; Win64; x64; rv:132.0) Gecko/20100101 Firefox/132.0" version="24.8.3">
  <diagram name="Seite-1" id="0aSDKSGETe_vQp2mPuAJ">
    <mxGraphModel dx="2403" dy="1269" grid="1" gridSize="10" guides="1" tooltips="1" connect="1" arrows="1" fold="1" page="1" pageScale="1" pageWidth="827" pageHeight="1169" math="0" shadow="0">
      <root>
        <mxCell id="0" />
        <mxCell id="1" parent="0" />
        <mxCell id="rKFoOrtif0fYfNDoBBtO-2" value="" style="image;html=1;image=img/lib/clip_art/people/Suit_Woman_128x128.png" vertex="1" parent="1">
          <mxGeometry x="100" y="180" width="80" height="80" as="geometry" />
        </mxCell>
        <mxCell id="rKFoOrtif0fYfNDoBBtO-13" style="rounded=0;orthogonalLoop=1;jettySize=auto;html=1;flowAnimation=0;" edge="1" parent="1" source="rKFoOrtif0fYfNDoBBtO-3" target="rKFoOrtif0fYfNDoBBtO-11">
          <mxGeometry relative="1" as="geometry" />
        </mxCell>
        <mxCell id="rKFoOrtif0fYfNDoBBtO-3" value="Secretary" style="text;html=1;align=center;verticalAlign=middle;resizable=0;points=[];autosize=1;strokeColor=none;fillColor=none;" vertex="1" parent="1">
          <mxGeometry x="105" y="260" width="70" height="30" as="geometry" />
        </mxCell>
        <mxCell id="rKFoOrtif0fYfNDoBBtO-14" style="rounded=0;orthogonalLoop=1;jettySize=auto;html=1;" edge="1" parent="1" source="rKFoOrtif0fYfNDoBBtO-4" target="rKFoOrtif0fYfNDoBBtO-11">
          <mxGeometry relative="1" as="geometry" />
        </mxCell>
        <mxCell id="rKFoOrtif0fYfNDoBBtO-4" value="" style="image;html=1;image=img/lib/clip_art/people/Suit_Woman_Green_128x128.png" vertex="1" parent="1">
          <mxGeometry x="100" y="380" width="80" height="80" as="geometry" />
        </mxCell>
        <mxCell id="rKFoOrtif0fYfNDoBBtO-5" value="Lecturer" style="text;html=1;align=center;verticalAlign=middle;resizable=0;points=[];autosize=1;strokeColor=none;fillColor=none;" vertex="1" parent="1">
          <mxGeometry x="105" y="460" width="70" height="30" as="geometry" />
        </mxCell>
        <mxCell id="rKFoOrtif0fYfNDoBBtO-15" style="rounded=0;orthogonalLoop=1;jettySize=auto;html=1;exitX=0;exitY=0.5;exitDx=0;exitDy=0;" edge="1" parent="1" source="rKFoOrtif0fYfNDoBBtO-6" target="rKFoOrtif0fYfNDoBBtO-11">
          <mxGeometry relative="1" as="geometry" />
        </mxCell>
        <mxCell id="rKFoOrtif0fYfNDoBBtO-6" value="" style="image;html=1;image=img/lib/clip_art/people/Worker_Man_128x128.png" vertex="1" parent="1">
          <mxGeometry x="576" y="335" width="80" height="80" as="geometry" />
        </mxCell>
        <mxCell id="rKFoOrtif0fYfNDoBBtO-7" value="Student" style="text;html=1;align=center;verticalAlign=middle;resizable=0;points=[];autosize=1;strokeColor=none;fillColor=none;" vertex="1" parent="1">
          <mxGeometry x="586" y="400" width="60" height="30" as="geometry" />
        </mxCell>
        <mxCell id="rKFoOrtif0fYfNDoBBtO-8" value="see timetable per room" style="strokeWidth=2;html=1;shape=mxgraph.flowchart.start_1;whiteSpace=wrap;" vertex="1" parent="1">
          <mxGeometry x="312" y="300" width="110" height="60" as="geometry" />
        </mxCell>
        <mxCell id="rKFoOrtif0fYfNDoBBtO-9" value="see est. distance between two appointments" style="strokeWidth=2;html=1;shape=mxgraph.flowchart.start_1;whiteSpace=wrap;" vertex="1" parent="1">
          <mxGeometry x="304" y="380" width="126" height="80" as="geometry" />
        </mxCell>
        <mxCell id="rKFoOrtif0fYfNDoBBtO-10" value="filter appointments from schedule" style="strokeWidth=2;html=1;shape=mxgraph.flowchart.start_1;whiteSpace=wrap;" vertex="1" parent="1">
          <mxGeometry x="312" y="210" width="110" height="60" as="geometry" />
        </mxCell>
        <mxCell id="rKFoOrtif0fYfNDoBBtO-11" value="Common activities" style="shape=umlFrame;whiteSpace=wrap;html=1;pointerEvents=0;recursiveResize=0;container=1;collapsible=0;width=160;" vertex="1" parent="1">
          <mxGeometry x="260" y="160" width="210" height="430" as="geometry" />
        </mxCell>
        <mxCell id="rKFoOrtif0fYfNDoBBtO-19" value="can see current time" style="strokeWidth=2;html=1;shape=mxgraph.flowchart.start_1;whiteSpace=wrap;" vertex="1" parent="rKFoOrtif0fYfNDoBBtO-11">
          <mxGeometry x="48" y="340" width="118" height="70" as="geometry" />
        </mxCell>
        <mxCell id="rKFoOrtif0fYfNDoBBtO-21" style="rounded=0;orthogonalLoop=1;jettySize=auto;html=1;entryX=0;entryY=0.5;entryDx=0;entryDy=0;entryPerimeter=0;" edge="1" parent="1" source="rKFoOrtif0fYfNDoBBtO-16" target="rKFoOrtif0fYfNDoBBtO-18">
          <mxGeometry relative="1" as="geometry" />
        </mxCell>
        <mxCell id="rKFoOrtif0fYfNDoBBtO-22" style="rounded=0;orthogonalLoop=1;jettySize=auto;html=1;entryX=0;entryY=0.5;entryDx=0;entryDy=0;entryPerimeter=0;" edge="1" parent="1" source="rKFoOrtif0fYfNDoBBtO-16" target="rKFoOrtif0fYfNDoBBtO-20">
          <mxGeometry relative="1" as="geometry">
            <mxPoint x="902" y="253" as="targetPoint" />
          </mxGeometry>
        </mxCell>
        <mxCell id="rKFoOrtif0fYfNDoBBtO-16" value="" style="image;html=1;image=img/lib/clip_art/people/Worker_Man_128x128.png" vertex="1" parent="1">
          <mxGeometry x="708" y="170" width="80" height="80" as="geometry" />
        </mxCell>
        <mxCell id="rKFoOrtif0fYfNDoBBtO-17" value="Student" style="text;html=1;align=center;verticalAlign=middle;resizable=0;points=[];autosize=1;strokeColor=none;fillColor=none;" vertex="1" parent="1">
          <mxGeometry x="718" y="245" width="60" height="30" as="geometry" />
        </mxCell>
        <mxCell id="rKFoOrtif0fYfNDoBBtO-18" value="&lt;div&gt;can see their schedule&lt;/div&gt;(lessons regarding their own course)" style="strokeWidth=2;html=1;shape=mxgraph.flowchart.start_1;whiteSpace=wrap;" vertex="1" parent="1">
          <mxGeometry x="891" y="130" width="182" height="80" as="geometry" />
        </mxCell>
        <mxCell id="rKFoOrtif0fYfNDoBBtO-20" value="can see schedule of lecturers" style="strokeWidth=2;html=1;shape=mxgraph.flowchart.start_1;whiteSpace=wrap;" vertex="1" parent="1">
          <mxGeometry x="891" y="230" width="182" height="80" as="geometry" />
        </mxCell>
        <mxCell id="rKFoOrtif0fYfNDoBBtO-23" value="" style="image;html=1;image=img/lib/clip_art/people/Suit_Woman_Green_128x128.png" vertex="1" parent="1">
          <mxGeometry x="708" y="400" width="80" height="80" as="geometry" />
        </mxCell>
        <mxCell id="rKFoOrtif0fYfNDoBBtO-24" value="Lecturer" style="text;html=1;align=center;verticalAlign=middle;resizable=0;points=[];autosize=1;strokeColor=none;fillColor=none;" vertex="1" parent="1">
          <mxGeometry x="713" y="480" width="70" height="30" as="geometry" />
        </mxCell>
        <mxCell id="rKFoOrtif0fYfNDoBBtO-25" style="rounded=0;orthogonalLoop=1;jettySize=auto;html=1;entryX=0;entryY=0.5;entryDx=0;entryDy=0;entryPerimeter=0;" edge="1" parent="1" target="rKFoOrtif0fYfNDoBBtO-27">
          <mxGeometry relative="1" as="geometry">
            <mxPoint x="788" y="439" as="sourcePoint" />
          </mxGeometry>
        </mxCell>
        <mxCell id="rKFoOrtif0fYfNDoBBtO-26" style="rounded=0;orthogonalLoop=1;jettySize=auto;html=1;entryX=0;entryY=0.5;entryDx=0;entryDy=0;entryPerimeter=0;" edge="1" parent="1" target="rKFoOrtif0fYfNDoBBtO-28">
          <mxGeometry relative="1" as="geometry">
            <mxPoint x="788" y="467" as="sourcePoint" />
            <mxPoint x="902" y="493" as="targetPoint" />
          </mxGeometry>
        </mxCell>
        <mxCell id="rKFoOrtif0fYfNDoBBtO-27" value="&lt;div&gt;can see their schedule&lt;/div&gt;(lessons teached by lecturer)" style="strokeWidth=2;html=1;shape=mxgraph.flowchart.start_1;whiteSpace=wrap;" vertex="1" parent="1">
          <mxGeometry x="891" y="370" width="182" height="80" as="geometry" />
        </mxCell>
        <mxCell id="rKFoOrtif0fYfNDoBBtO-28" value="&lt;div&gt;can setup &#39;blocker times&#39;&amp;nbsp;&lt;/div&gt;&lt;div&gt;(not available time)&lt;/div&gt;" style="strokeWidth=2;html=1;shape=mxgraph.flowchart.start_1;whiteSpace=wrap;" vertex="1" parent="1">
          <mxGeometry x="891" y="470" width="182" height="80" as="geometry" />
        </mxCell>
        <mxCell id="rKFoOrtif0fYfNDoBBtO-29" value="can request changes for an appointment" style="strokeWidth=2;html=1;shape=mxgraph.flowchart.start_1;whiteSpace=wrap;" vertex="1" parent="1">
          <mxGeometry x="891" y="590" width="182" height="80" as="geometry" />
        </mxCell>
        <mxCell id="rKFoOrtif0fYfNDoBBtO-30" style="rounded=0;orthogonalLoop=1;jettySize=auto;html=1;entryX=0;entryY=0.5;entryDx=0;entryDy=0;entryPerimeter=0;" edge="1" parent="1" source="rKFoOrtif0fYfNDoBBtO-23" target="rKFoOrtif0fYfNDoBBtO-29">
          <mxGeometry relative="1" as="geometry" />
        </mxCell>
        <mxCell id="rKFoOrtif0fYfNDoBBtO-37" style="rounded=0;orthogonalLoop=1;jettySize=auto;html=1;entryX=0;entryY=0.5;entryDx=0;entryDy=0;entryPerimeter=0;" edge="1" parent="1" source="rKFoOrtif0fYfNDoBBtO-31" target="rKFoOrtif0fYfNDoBBtO-35">
          <mxGeometry relative="1" as="geometry" />
        </mxCell>
        <mxCell id="rKFoOrtif0fYfNDoBBtO-38" style="rounded=0;orthogonalLoop=1;jettySize=auto;html=1;entryX=0;entryY=0.5;entryDx=0;entryDy=0;entryPerimeter=0;" edge="1" parent="1" source="rKFoOrtif0fYfNDoBBtO-31" target="rKFoOrtif0fYfNDoBBtO-36">
          <mxGeometry relative="1" as="geometry" />
        </mxCell>
        <mxCell id="rKFoOrtif0fYfNDoBBtO-39" style="rounded=0;orthogonalLoop=1;jettySize=auto;html=1;entryX=1;entryY=0.5;entryDx=0;entryDy=0;entryPerimeter=0;" edge="1" parent="1" source="rKFoOrtif0fYfNDoBBtO-31" target="rKFoOrtif0fYfNDoBBtO-34">
          <mxGeometry relative="1" as="geometry" />
        </mxCell>
        <mxCell id="rKFoOrtif0fYfNDoBBtO-40" style="rounded=0;orthogonalLoop=1;jettySize=auto;html=1;entryX=1;entryY=0.5;entryDx=0;entryDy=0;entryPerimeter=0;" edge="1" parent="1" source="rKFoOrtif0fYfNDoBBtO-31" target="rKFoOrtif0fYfNDoBBtO-33">
          <mxGeometry relative="1" as="geometry" />
        </mxCell>
        <mxCell id="rKFoOrtif0fYfNDoBBtO-31" value="" style="image;html=1;image=img/lib/clip_art/people/Suit_Woman_128x128.png;fontStyle=4" vertex="1" parent="1">
          <mxGeometry x="404" y="740" width="80" height="80" as="geometry" />
        </mxCell>
        <mxCell id="rKFoOrtif0fYfNDoBBtO-32" value="Secretary" style="text;html=1;align=center;verticalAlign=middle;resizable=0;points=[];autosize=1;strokeColor=none;fillColor=none;" vertex="1" parent="1">
          <mxGeometry x="409" y="820" width="70" height="30" as="geometry" />
        </mxCell>
        <mxCell id="rKFoOrtif0fYfNDoBBtO-33" value="can see and switch between schedules of the courses they are overseeing" style="strokeWidth=2;html=1;shape=mxgraph.flowchart.start_1;whiteSpace=wrap;" vertex="1" parent="1">
          <mxGeometry x="175" y="680" width="176" height="90" as="geometry" />
        </mxCell>
        <mxCell id="rKFoOrtif0fYfNDoBBtO-34" value="can see all the lectures per course" style="strokeWidth=2;html=1;shape=mxgraph.flowchart.start_1;whiteSpace=wrap;" vertex="1" parent="1">
          <mxGeometry x="175" y="790" width="176" height="90" as="geometry" />
        </mxCell>
        <mxCell id="rKFoOrtif0fYfNDoBBtO-35" value="can create new appointments" style="strokeWidth=2;html=1;shape=mxgraph.flowchart.start_1;whiteSpace=wrap;" vertex="1" parent="1">
          <mxGeometry x="532" y="680" width="176" height="90" as="geometry" />
        </mxCell>
        <mxCell id="rKFoOrtif0fYfNDoBBtO-36" value="can edit new appointments" style="strokeWidth=2;html=1;shape=mxgraph.flowchart.start_1;whiteSpace=wrap;" vertex="1" parent="1">
          <mxGeometry x="532" y="790" width="176" height="90" as="geometry" />
        </mxCell>
      </root>
    </mxGraphModel>
  </diagram>
</mxfile>
